PathFileType	4	(X/Y/Z)	SUBJ36_1_walk_RCNL2025.trc
DataRate	CameraRate	NumFrames	NumMarkers	Units	OrigDataRate	OrigDataStartFrame	OrigNumFrames
100	100	4	25	mm	100	190	378
Frame#	Time	R_Shoulder			L_Shoulder			C7			J_Notch			R_Elbow			L_Elbow			R_Wrist			L_Wrist			R_Asis			L_Asis			Sacral			Thoracic			Sternum			R_Thigh_Lateral			R_Knee_Lateral			R_Shank_Lateral			R_Ankle_Lateral			R_Heel			R_Toe			L_Thigh_Lateral			L_Knee_Lateral			L_Shank_Lateral			L_Ankle_Lateral			L_Heel			L_Toe		
		X1	Y1	Z1	X2	Y2	Z2	X3	Y3	Z3	X4	Y4	Z4	X5	Y5	Z5	X6	Y6	Z6	X7	Y7	Z7	X8	Y8	Z8	X9	Y9	Z9	X10	Y10	Z10	X11	Y11	Z11	X12	Y12	Z12	X13	Y13	Z13	X14	Y14	Z14	X15	Y15	Z15	X16	Y16	Z16	X17	Y17	Z17	X18	Y18	Z18	X19	Y19	Z19	X20	Y20	Z20	X21	Y21	Z21	X22	Y22	Z22	X23	Y23	Z23	X24	Y24	Z24	X25	Y25	Z25
190	1.89000000	1000.318848	1334.312378	-59.679966	989.764893	1312.905151	-405.435699	927.986755	1389.887817	-218.873505	1067.920166	1285.809814	-223.657715	961.167114	1015.236389	21.299377	915.110107	1003.149292	-456.231873	1103.541809	819.031891	26.185846	988.050049	780.628235	-470.796066	1051.319214	898.323120	-103.084106	1061.782349	891.513611	-330.895050	836.683594	882.378601	-236.043045	848.463501	1133.734863	-216.248108	1100.303711	1105.399414	-216.191635	850.438538	512.258789	-78.606468	835.013672	454.268677	-131.967789	746.567139	257.325684	-110.826927	706.490051	94.651390	-193.896957	657.708435	86.768303	-242.113068	818.926270	45.596291	-220.243515	1088.591309	493.122833	-391.633972	1138.966064	443.538086	-323.965393	1180.598633	235.086731	-345.050964	1234.068115	76.585495	-264.351044	1208.905151	41.341408	-205.046936	1367.583862	87.680374	-254.676331
191	1.90000000	1011.751160	1332.956787	-59.114563	1001.322876	1311.308105	-404.939850	939.310608	1388.254517	-218.391068	1079.528809	1284.585327	-223.083115	973.968506	1013.771423	21.918661	926.497253	1001.724731	-455.690765	1115.584595	816.948303	26.662491	997.001770	778.529022	-471.023361	1064.027222	896.848755	-102.046562	1074.716797	889.643738	-329.904297	849.593750	881.004395	-235.482452	860.624512	1131.784546	-215.642807	1112.482666	1104.266968	-215.355255	860.075256	512.063904	-77.596695	844.115906	454.157898	-130.933029	751.844177	258.971344	-109.884178	708.314331	97.089821	-193.011688	659.432129	90.430901	-241.236725	819.701721	45.621540	-219.889267	1098.058105	489.030609	-388.250214	1149.921753	441.476074	-320.538727	1193.337891	233.044281	-340.349915	1249.325073	75.579964	-259.045776	1224.552490	40.312969	-199.568558	1382.962036	88.093811	-249.535034
192	1.91000000	1023.287720	1331.696777	-58.653057	1012.977661	1309.706909	-404.553894	950.735352	1386.644409	-218.037750	1091.279175	1283.442261	-222.596069	986.697693	1012.437073	22.495562	937.989685	1000.277161	-455.172546	1127.335205	814.841766	27.204989	1006.193359	776.471680	-471.283585	1076.998779	895.232117	-100.950394	1087.910156	887.829834	-328.815674	862.717041	879.722229	-234.817520	873.002991	1129.832520	-215.055573	1124.869629	1103.228760	-214.541870	869.935242	511.788055	-76.628380	853.583313	453.905029	-129.881668	757.266968	260.679230	-108.963867	710.316589	99.676735	-192.098923	661.383911	94.285721	-240.374115	820.550476	45.637028	-219.516968	1109.528931	486.069977	-385.322906	1161.597290	439.558868	-317.227539	1204.987061	230.953445	-335.770050	1261.978027	74.240616	-253.923309	1237.428955	39.038921	-194.351761	1395.705811	87.072823	-244.200592
193	1.92000000	1034.940674	1330.536499	-58.295403	1024.742920	1308.104004	-404.276093	962.275146	1385.071533	-217.814087	1103.185669	1282.389771	-222.196533	999.332458	1011.238892	23.026415	949.568848	998.812012	-454.675171	1138.799316	812.743591	27.822797	1015.629639	774.457916	-471.566345	1090.218506	893.473206	-99.797035	1101.359375	886.107971	-327.633057	876.045654	878.535889	-234.054535	885.606506	1127.901978	-214.483612	1137.477173	1102.293579	-213.754333	880.050903	511.405579	-75.697960	863.436768	453.496643	-128.806320	762.839111	262.467682	-108.064888	712.520508	102.417671	-191.154709	663.608398	98.341415	-239.528015	821.470581	45.626286	-219.123489	1122.927368	484.233612	-382.862335	1173.888794	437.777588	-314.053406	1215.702881	228.853790	-331.377686	1272.263062	72.596992	-249.093246	1247.758911	37.553658	-189.527267	1406.055664	84.641464	-238.754532
